<svg xmlns="http://www.w3.org/2000/svg" width="341" height="56" fill="none" viewBox="0 0 341 56"><rect width="341" height="56" fill="#1877F2" rx="10"/><g clip-path="url(#clip0_136_1844)"><path fill="#fff" d="M102 28C102 21.3726 96.6274 16 90 16C83.3726 16 78 21.3725 78 28C78 33.9895 82.3882 38.954 88.125 39.8542V31.4688H85.0781V28H88.125V25.3563C88.125 22.3488 89.9166 20.6875 92.6575 20.6875C93.9705 20.6875 95.3438 20.9219 95.3438 20.9219V23.875H93.8306C92.3398 23.875 91.875 24.8 91.875 25.7491V28H95.2031L94.6711 31.4688H91.875V39.8542C97.6117 38.954 102 33.9896 102 28Z"/><path fill="#1877F2" d="M94.6711 31.4688L95.2031 28H91.875V25.7491C91.875 24.7999 92.3399 23.875 93.8306 23.875H95.3438V20.9219C95.3438 20.9219 93.9705 20.6875 92.6575 20.6875C89.9166 20.6875 88.125 22.3488 88.125 25.3563V28H85.0781V31.4688H88.125V39.8542C88.7453 39.9514 89.3722 40.0002 90 40C90.6278 40.0002 91.2547 39.9514 91.875 39.8542V31.4688H94.6711Z"/></g><path fill="#fff" d="M120.208 34H113.248V22.512H115.008V32.416H120.208V34ZM125.125 34.16C122.725 34.16 120.965 32.272 120.965 29.76C120.965 27.248 122.725 25.36 125.125 25.36C127.525 25.36 129.285 27.248 129.285 29.76C129.285 32.272 127.525 34.16 125.125 34.16ZM125.125 32.736C126.517 32.736 127.621 31.616 127.621 29.76C127.621 27.904 126.517 26.8 125.125 26.8C123.733 26.8 122.645 27.904 122.645 29.76C122.645 31.616 123.733 32.736 125.125 32.736ZM134.168 37.264C131.944 37.264 130.504 36.08 130.408 34.16H131.976C132.072 35.344 132.84 35.984 134.152 35.984C135.608 35.984 136.376 35.2 136.376 33.744V32.208C135.896 33.232 134.936 33.824 133.784 33.824C131.672 33.824 130.168 32.08 130.168 29.584C130.168 27.056 131.608 25.36 133.736 25.36C134.952 25.36 135.912 25.952 136.488 27.024V25.52H137.992V33.712C137.992 35.936 136.568 37.264 134.168 37.264ZM131.8 29.584C131.8 31.344 132.664 32.416 134.072 32.416C135.448 32.416 136.376 31.312 136.376 29.632C136.376 27.872 135.464 26.752 134.072 26.752C132.68 26.752 131.8 27.84 131.8 29.584ZM142.197 23.552C142.197 24.16 141.717 24.624 141.029 24.624C140.341 24.624 139.845 24.16 139.845 23.552C139.845 22.928 140.341 22.48 141.029 22.48C141.717 22.48 142.197 22.928 142.197 23.552ZM141.845 34H140.229V25.52H141.845V34ZM145.705 29.216V34H144.089V25.52H145.593V26.928C146.169 25.984 147.129 25.36 148.297 25.36C150.041 25.36 151.193 26.48 151.193 28.512V34H149.577V29.056C149.577 27.6 148.937 26.784 147.737 26.784C146.633 26.784 145.705 27.712 145.705 29.216ZM163.691 34L161.771 27.696L159.835 34H158.203L155.755 25.52H157.339L159.051 31.696L160.971 25.52H162.571L164.459 31.712L166.171 25.52H167.771L165.307 34H163.691ZM171.057 23.552C171.057 24.16 170.577 24.624 169.889 24.624C169.201 24.624 168.705 24.16 168.705 23.552C168.705 22.928 169.201 22.48 169.889 22.48C170.577 22.48 171.057 22.928 171.057 23.552ZM170.705 34H169.089V25.52H170.705V34ZM177.732 32.432V33.856C177.236 34.08 176.804 34.16 176.292 34.16C174.724 34.16 173.636 33.312 173.636 31.44V26.896H171.764V25.52H173.636V23.008H175.252V25.52H177.812V26.896H175.252V31.072C175.252 32.24 175.812 32.656 176.676 32.656C177.06 32.656 177.396 32.592 177.732 32.432ZM180.97 29.216V34H179.354V22.512H180.97V26.88C181.53 25.968 182.394 25.36 183.562 25.36C185.306 25.36 186.458 26.48 186.458 28.512V34H184.842V29.056C184.842 27.6 184.202 26.784 183.002 26.784C181.898 26.784 180.97 27.712 180.97 29.216ZM193.836 34H192.076V22.512H199.052V24.048H193.836V27.792H198.284V29.328H193.836V34ZM205.475 34V32.688C204.947 33.632 204.003 34.16 202.755 34.16C200.995 34.16 199.843 33.152 199.843 31.6C199.843 29.936 201.171 29.072 203.699 29.072C204.195 29.072 204.595 29.088 205.283 29.168V28.544C205.283 27.328 204.627 26.64 203.507 26.64C202.323 26.64 201.603 27.344 201.555 28.528H200.083C200.163 26.624 201.523 25.36 203.507 25.36C205.603 25.36 206.819 26.544 206.819 28.56V34H205.475ZM201.379 31.552C201.379 32.432 202.035 33.008 203.075 33.008C204.435 33.008 205.283 32.16 205.283 30.864V30.176C204.659 30.096 204.211 30.08 203.795 30.08C202.179 30.08 201.379 30.56 201.379 31.552ZM212.323 34.176C210.003 34.176 208.371 32.352 208.371 29.76C208.371 27.2 210.035 25.36 212.323 25.36C214.419 25.36 215.939 26.752 216.243 28.96H214.547C214.371 27.6 213.523 26.784 212.339 26.784C210.947 26.784 210.035 27.968 210.035 29.76C210.035 31.568 210.947 32.736 212.339 32.736C213.539 32.736 214.371 31.936 214.563 30.56H216.243C215.955 32.8 214.451 34.176 212.323 34.176ZM221.28 34.16C218.832 34.16 217.184 32.384 217.184 29.712C217.184 27.2 218.896 25.36 221.232 25.36C223.76 25.36 225.44 27.408 225.152 30.16H218.832C218.96 31.888 219.824 32.896 221.248 32.896C222.448 32.896 223.28 32.24 223.552 31.136H225.152C224.736 33.024 223.28 34.16 221.28 34.16ZM221.2 26.576C219.904 26.576 219.024 27.504 218.848 29.088H223.44C223.36 27.52 222.512 26.576 221.2 26.576ZM234.966 29.76C234.966 32.304 233.494 34.16 231.206 34.16C230.006 34.16 228.982 33.552 228.374 32.48V34H226.87V22.512H228.486V26.976C229.078 25.936 230.054 25.36 231.206 25.36C233.478 25.36 234.966 27.184 234.966 29.76ZM233.286 29.76C233.286 27.84 232.278 26.784 230.886 26.784C229.542 26.784 228.486 27.824 228.486 29.728C228.486 31.6 229.51 32.72 230.886 32.72C232.278 32.72 233.286 31.648 233.286 29.76ZM240.156 34.16C237.756 34.16 235.996 32.272 235.996 29.76C235.996 27.248 237.756 25.36 240.156 25.36C242.556 25.36 244.316 27.248 244.316 29.76C244.316 32.272 242.556 34.16 240.156 34.16ZM240.156 32.736C241.548 32.736 242.652 31.616 242.652 29.76C242.652 27.904 241.548 26.8 240.156 26.8C238.764 26.8 237.676 27.904 237.676 29.76C237.676 31.616 238.764 32.736 240.156 32.736ZM249.516 34.16C247.116 34.16 245.356 32.272 245.356 29.76C245.356 27.248 247.116 25.36 249.516 25.36C251.916 25.36 253.676 27.248 253.676 29.76C253.676 32.272 251.916 34.16 249.516 34.16ZM249.516 32.736C250.908 32.736 252.012 31.616 252.012 29.76C252.012 27.904 250.908 26.8 249.516 26.8C248.124 26.8 247.036 27.904 247.036 29.76C247.036 31.616 248.124 32.736 249.516 32.736ZM256.939 34H255.323V22.512H256.939V29.312L260.571 25.52H262.475L258.555 29.632L262.843 34H260.763L256.939 29.984V34Z"/><defs><clipPath id="clip0_136_1844"><rect width="24" height="24" fill="#fff" transform="translate(78 16)"/></clipPath></defs></svg>