<svg width="341" height="56" viewBox="0 0 341 56" fill="none" xmlns="http://www.w3.org/2000/svg">
<rect x="0.5" y="0.5" width="340" height="55" rx="9.5" stroke="#CCCCCC"/>
<g clip-path="url(#clip0_136_1843)">
<path d="M110.989 28.2245C110.989 27.2413 110.907 26.5238 110.73 25.7797H99.239V30.2176H105.984C105.848 31.3205 105.114 32.9815 103.482 34.0976L103.459 34.2462L107.092 36.9964L107.344 37.0209C109.656 34.9347 110.989 31.8653 110.989 28.2245Z" fill="#4285F4"/>
<path d="M99.239 39.9176C102.544 39.9176 105.318 38.8545 107.344 37.0209L103.482 34.0976C102.448 34.8018 101.061 35.2934 99.239 35.2934C96.0025 35.2934 93.2555 33.2074 92.2763 30.324L92.1328 30.3359L88.3548 33.1927L88.3054 33.3269C90.318 37.2334 94.4521 39.9176 99.239 39.9176Z" fill="#34A853"/>
<path d="M92.2763 30.324C92.018 29.5799 91.8684 28.7826 91.8684 27.9588C91.8684 27.1349 92.018 26.3377 92.2627 25.5936L92.2559 25.4351L88.4306 22.5324L88.3055 22.5906C87.476 24.2117 87 26.0321 87 27.9588C87 29.8855 87.476 31.7058 88.3055 33.3269L92.2763 30.324Z" fill="#FBBC05"/>
<path d="M99.239 20.624C101.537 20.624 103.087 21.594 103.971 22.4046L107.426 19.1093C105.304 17.1826 102.544 16 99.239 16C94.4521 16 90.318 18.6841 88.3054 22.5906L92.2627 25.5936C93.2555 22.7102 96.0025 20.624 99.239 20.624Z" fill="#EB4335"/>
</g>
<path d="M129.208 34H122.248V22.512H124.008V32.416H129.208V34ZM134.125 34.16C131.725 34.16 129.965 32.272 129.965 29.76C129.965 27.248 131.725 25.36 134.125 25.36C136.525 25.36 138.285 27.248 138.285 29.76C138.285 32.272 136.525 34.16 134.125 34.16ZM134.125 32.736C135.517 32.736 136.621 31.616 136.621 29.76C136.621 27.904 135.517 26.8 134.125 26.8C132.733 26.8 131.645 27.904 131.645 29.76C131.645 31.616 132.733 32.736 134.125 32.736ZM143.168 37.264C140.944 37.264 139.504 36.08 139.408 34.16H140.976C141.072 35.344 141.84 35.984 143.152 35.984C144.608 35.984 145.376 35.2 145.376 33.744V32.208C144.896 33.232 143.936 33.824 142.784 33.824C140.672 33.824 139.168 32.08 139.168 29.584C139.168 27.056 140.608 25.36 142.736 25.36C143.952 25.36 144.912 25.952 145.488 27.024V25.52H146.992V33.712C146.992 35.936 145.568 37.264 143.168 37.264ZM140.8 29.584C140.8 31.344 141.664 32.416 143.072 32.416C144.448 32.416 145.376 31.312 145.376 29.632C145.376 27.872 144.464 26.752 143.072 26.752C141.68 26.752 140.8 27.84 140.8 29.584ZM151.197 23.552C151.197 24.16 150.717 24.624 150.029 24.624C149.341 24.624 148.845 24.16 148.845 23.552C148.845 22.928 149.341 22.48 150.029 22.48C150.717 22.48 151.197 22.928 151.197 23.552ZM150.845 34H149.229V25.52H150.845V34ZM154.705 29.216V34H153.089V25.52H154.593V26.928C155.169 25.984 156.129 25.36 157.297 25.36C159.041 25.36 160.193 26.48 160.193 28.512V34H158.577V29.056C158.577 27.6 157.937 26.784 156.737 26.784C155.633 26.784 154.705 27.712 154.705 29.216ZM172.691 34L170.771 27.696L168.835 34H167.203L164.755 25.52H166.339L168.051 31.696L169.971 25.52H171.571L173.459 31.712L175.171 25.52H176.771L174.307 34H172.691ZM180.057 23.552C180.057 24.16 179.577 24.624 178.889 24.624C178.201 24.624 177.705 24.16 177.705 23.552C177.705 22.928 178.201 22.48 178.889 22.48C179.577 22.48 180.057 22.928 180.057 23.552ZM179.705 34H178.089V25.52H179.705V34ZM186.732 32.432V33.856C186.236 34.08 185.804 34.16 185.292 34.16C183.724 34.16 182.636 33.312 182.636 31.44V26.896H180.764V25.52H182.636V23.008H184.252V25.52H186.812V26.896H184.252V31.072C184.252 32.24 184.812 32.656 185.676 32.656C186.06 32.656 186.396 32.592 186.732 32.432ZM189.97 29.216V34H188.354V22.512H189.97V26.88C190.53 25.968 191.394 25.36 192.562 25.36C194.306 25.36 195.458 26.48 195.458 28.512V34H193.842V29.056C193.842 27.6 193.202 26.784 192.002 26.784C190.898 26.784 189.97 27.712 189.97 29.216ZM206.276 34.24C202.964 34.24 200.404 31.728 200.404 28.24C200.404 24.848 202.836 22.272 206.18 22.272C209.14 22.272 211.14 24.08 211.844 26.464H209.796C209.364 24.992 208.1 23.856 206.132 23.856C203.86 23.856 202.228 25.568 202.228 28.272C202.228 30.816 203.78 32.736 206.34 32.736C208.468 32.736 209.812 31.424 210.132 29.456H206.164V28.048H211.988C212.052 31.728 209.796 34.24 206.276 34.24ZM217.25 34.16C214.85 34.16 213.09 32.272 213.09 29.76C213.09 27.248 214.85 25.36 217.25 25.36C219.65 25.36 221.41 27.248 221.41 29.76C221.41 32.272 219.65 34.16 217.25 34.16ZM217.25 32.736C218.642 32.736 219.746 31.616 219.746 29.76C219.746 27.904 218.642 26.8 217.25 26.8C215.858 26.8 214.77 27.904 214.77 29.76C214.77 31.616 215.858 32.736 217.25 32.736ZM226.61 34.16C224.21 34.16 222.45 32.272 222.45 29.76C222.45 27.248 224.21 25.36 226.61 25.36C229.01 25.36 230.77 27.248 230.77 29.76C230.77 32.272 229.01 34.16 226.61 34.16ZM226.61 32.736C228.002 32.736 229.106 31.616 229.106 29.76C229.106 27.904 228.002 26.8 226.61 26.8C225.218 26.8 224.13 27.904 224.13 29.76C224.13 31.616 225.218 32.736 226.61 32.736ZM235.653 37.264C233.429 37.264 231.989 36.08 231.893 34.16H233.461C233.557 35.344 234.325 35.984 235.637 35.984C237.093 35.984 237.861 35.2 237.861 33.744V32.208C237.381 33.232 236.421 33.824 235.269 33.824C233.157 33.824 231.653 32.08 231.653 29.584C231.653 27.056 233.093 25.36 235.221 25.36C236.437 25.36 237.397 25.952 237.973 27.024V25.52H239.477V33.712C239.477 35.936 238.053 37.264 235.653 37.264ZM233.285 29.584C233.285 31.344 234.149 32.416 235.557 32.416C236.933 32.416 237.861 31.312 237.861 29.632C237.861 27.872 236.949 26.752 235.557 26.752C234.165 26.752 233.285 27.84 233.285 29.584ZM243.346 34H241.714V22.512H243.346V34ZM249.077 34.16C246.629 34.16 244.981 32.384 244.981 29.712C244.981 27.2 246.693 25.36 249.029 25.36C251.557 25.36 253.237 27.408 252.949 30.16H246.629C246.757 31.888 247.621 32.896 249.045 32.896C250.245 32.896 251.077 32.24 251.349 31.136H252.949C252.533 33.024 251.077 34.16 249.077 34.16ZM248.997 26.576C247.701 26.576 246.821 27.504 246.645 29.088H251.237C251.157 27.52 250.309 26.576 248.997 26.576Z" fill="#1A1A1A"/>
<defs>
<clipPath id="clip0_136_1843">
<rect width="24" height="24" fill="white" transform="translate(87 16)"/>
</clipPath>
</defs>
</svg>
