<svg xmlns="http://www.w3.org/2000/svg" xmlns:xlink="http://www.w3.org/1999/xlink" width="500" zoomAndPan="magnify" viewBox="0 0 375 374.999991" height="500" preserveAspectRatio="xMidYMid meet" version="1.0"><defs><g/></defs><rect x="-37.5" width="450" fill="#ffffff" y="-37.499999" height="449.999989" fill-opacity="1"/><rect x="-37.5" width="450" fill="#222222" y="-37.499999" height="449.999989" fill-opacity="1"/><g fill="#ffffff" fill-opacity="1"><g transform="translate(100.716106, 215.624986)"><g><path d="M 5.09375 0 L 5.09375 -58.390625 L 31.78125 -58.390625 C 35.726562 -58.390625 39.328125 -57.523438 42.578125 -55.796875 C 45.828125 -54.078125 48.410156 -51.6875 50.328125 -48.625 C 52.253906 -45.5625 53.21875 -42.03125 53.21875 -38.03125 C 53.21875 -34.300781 52.328125 -30.945312 50.546875 -27.96875 C 48.765625 -25 46.425781 -22.597656 43.53125 -20.765625 L 48.203125 -12.84375 C 48.484375 -12.457031 48.800781 -12.148438 49.15625 -11.921875 C 49.519531 -11.703125 50.007812 -11.59375 50.625 -11.59375 L 55.796875 -11.59375 L 55.796875 0 L 47.625 0 C 45.125 0 42.84375 -0.597656 40.78125 -1.796875 C 38.726562 -2.992188 37.117188 -4.5625 35.953125 -6.5 L 29.6875 -17.59375 C 29.300781 -17.59375 28.898438 -17.59375 28.484375 -17.59375 C 28.066406 -17.59375 27.632812 -17.59375 27.1875 -17.59375 L 19.09375 -17.59375 L 19.09375 0 Z M 19.09375 -29.1875 L 30.1875 -29.1875 C 31.800781 -29.1875 33.300781 -29.535156 34.6875 -30.234375 C 36.082031 -30.929688 37.179688 -31.929688 37.984375 -33.234375 C 38.796875 -34.546875 39.203125 -36.117188 39.203125 -37.953125 C 39.203125 -39.785156 38.785156 -41.351562 37.953125 -42.65625 C 37.117188 -43.96875 36.019531 -44.96875 34.65625 -45.65625 C 33.289062 -46.351562 31.800781 -46.703125 30.1875 -46.703125 L 19.09375 -46.703125 Z M 19.09375 -29.1875 "/></g></g></g><g fill="#ffffff" fill-opacity="1"><g transform="translate(150.915978, 215.624986)"><g><path d="M 3.75 0 L 3.75 -11.671875 L 13.84375 -11.671875 L 13.84375 -46.703125 L 3.75 -46.703125 L 3.75 -58.390625 L 37.859375 -58.390625 L 37.859375 -46.703125 L 27.78125 -46.703125 L 27.78125 -11.671875 L 37.859375 -11.671875 L 37.859375 0 Z M 3.75 0 "/></g></g></g><g fill="#ffffff" fill-opacity="1"><g transform="translate(185.688597, 215.624986)"><g><path d="M 4.34375 0 L 4.34375 -41.125 C 4.34375 -44.34375 5.132812 -47.257812 6.71875 -49.875 C 8.300781 -52.488281 10.441406 -54.5625 13.140625 -56.09375 C 15.835938 -57.625 18.851562 -58.390625 22.1875 -58.390625 L 43.953125 -58.390625 L 43.953125 -46.703125 L 23.9375 -46.703125 C 22.382812 -46.703125 21.0625 -46.144531 19.96875 -45.03125 C 18.882812 -43.925781 18.34375 -42.566406 18.34375 -40.953125 L 18.34375 -32.53125 L 41.125 -32.53125 L 41.125 -20.9375 L 18.34375 -20.9375 L 18.34375 0 Z M 4.34375 0 "/></g></g></g><g fill="#ffffff" fill-opacity="1"><g transform="translate(225.297866, 215.624986)"><g><path d="M 4.34375 0 L 4.34375 -41.125 C 4.34375 -44.34375 5.132812 -47.257812 6.71875 -49.875 C 8.300781 -52.488281 10.441406 -54.5625 13.140625 -56.09375 C 15.835938 -57.625 18.851562 -58.390625 22.1875 -58.390625 L 43.953125 -58.390625 L 43.953125 -46.703125 L 23.9375 -46.703125 C 22.382812 -46.703125 21.0625 -46.144531 19.96875 -45.03125 C 18.882812 -43.925781 18.34375 -42.566406 18.34375 -40.953125 L 18.34375 -32.53125 L 41.125 -32.53125 L 41.125 -20.9375 L 18.34375 -20.9375 L 18.34375 0 Z M 4.34375 0 "/></g></g></g></svg>