<svg width="24" height="24" viewBox="0 0 24 24" fill="none" xmlns="http://www.w3.org/2000/svg">
<path d="M3.24911 11.8779C3.24911 11.5795 3.36764 11.2934 3.57862 11.0824C3.7896 10.8714 4.07574 10.7529 4.37411 10.7529H18.1554L13.3254 5.92383C13.114 5.71249 12.9953 5.42584 12.9953 5.12696C12.9953 4.82807 13.114 4.54142 13.3254 4.33008C13.5367 4.11874 13.8234 4 14.1222 4C14.4211 4 14.7078 4.11874 14.9191 4.33008L21.6691 11.0801C21.774 11.1846 21.8572 11.3088 21.914 11.4455C21.9708 11.5823 22 11.7289 22 11.877C22 12.025 21.9708 12.1716 21.914 12.3084C21.8572 12.4451 21.774 12.5693 21.6691 12.6738L14.9191 19.4238C14.8145 19.5285 14.6902 19.6115 14.5535 19.6681C14.4168 19.7248 14.2702 19.7539 14.1222 19.7539C13.9742 19.7539 13.8277 19.7248 13.691 19.6681C13.5542 19.6115 13.43 19.5285 13.3254 19.4238C13.2207 19.3192 13.1377 19.1949 13.0811 19.0582C13.0244 18.9215 12.9953 18.7749 12.9953 18.627C12.9953 18.479 13.0244 18.3324 13.0811 18.1957C13.1377 18.059 13.2207 17.9347 13.3254 17.8301L18.1554 13.0029H4.37411C4.07574 13.0029 3.7896 12.8844 3.57862 12.6734C3.36764 12.4624 3.24911 12.1763 3.24911 11.8779Z" fill="#1A1A1A"/>
</svg>
