<svg width="34" height="34" viewBox="0 0 34 34" fill="none" xmlns="http://www.w3.org/2000/svg">
<path d="M10.3416 23.5997C10.1306 23.3888 10.0121 23.1026 10.0121 22.8042C10.0121 22.5059 10.1306 22.2197 10.3416 22.0087L20.0864 12.2639L13.2564 12.2646C12.9575 12.2646 12.6709 12.1459 12.4595 11.9345C12.2482 11.7232 12.1295 11.4365 12.1295 11.1376C12.1295 10.8388 12.2482 10.5521 12.4595 10.3408C12.6709 10.1294 12.9575 10.0107 13.2564 10.0107L22.8023 10.0107C22.9504 10.0104 23.0971 10.0394 23.2339 10.0959C23.3708 10.1525 23.4951 10.2355 23.5998 10.3402C23.7045 10.4449 23.7875 10.5692 23.844 10.7061C23.9006 10.8429 23.9296 10.9896 23.9293 11.1376L23.9293 20.6836C23.9293 20.8316 23.9001 20.9781 23.8435 21.1148C23.7869 21.2516 23.7039 21.3758 23.5992 21.4805C23.4946 21.5851 23.3703 21.6681 23.2336 21.7247C23.0969 21.7814 22.9503 21.8105 22.8023 21.8105C22.6544 21.8105 22.5078 21.7814 22.3711 21.7247C22.2344 21.6681 22.1101 21.5851 22.0055 21.4805C21.9008 21.3758 21.8178 21.2516 21.7612 21.1148C21.7045 20.9781 21.6754 20.8316 21.6754 20.6836L21.6774 13.8549L11.9326 23.5997C11.7216 23.8107 11.4354 23.9292 11.1371 23.9292C10.8387 23.9292 10.5526 23.8107 10.3416 23.5997Z" fill="#1A1A1A"/>
</svg>
